<?xml version="1.0" standalone="no"?>
<!DOCTYPE svg PUBLIC "-//W3C//DTD SVG 20010904//EN"
 "http://www.w3.org/TR/2001/REC-SVG-20010904/DTD/svg10.dtd">
<svg version="1.0" xmlns="http://www.w3.org/2000/svg"
 width="80.000000pt" height="80.000000pt" viewBox="0 0 80.000000 80.000000"
 preserveAspectRatio="xMidYMid meet">
<metadata>
Created by potrace 1.11, written by Peter Selinger 2001-2013
</metadata>
<g transform="translate(0.000000,80.000000) scale(0.100000,-0.100000)"
fill="#000000" stroke="none">
<path d="M0 400 l0 -400 400 0 400 0 0 400 0 400 -400 0 -400 0 0 -400z m370
215 c0 -8 4 -23 9 -33 16 -31 44 -103 46 -117 2 -10 8 -27 25 -70 25 -66 50
-125 61 -147 13 -25 0 -50 -25 -46 -16 2 -23 13 -30 51 -5 26 -13 47 -18 47
-4 0 -8 11 -8 25 0 14 -4 25 -10 25 -5 0 -10 7 -10 15 0 8 -4 24 -10 35 -5 11
-14 29 -20 40 -5 10 -13 37 -16 60 -4 22 -10 40 -15 40 -5 0 -9 11 -9 25 0 14
-4 25 -10 25 -5 0 -10 9 -10 20 0 15 7 20 25 20 16 0 25 -6 25 -15z m268 -52
c2 -13 10 -23 18 -23 8 0 14 -10 14 -25 0 -16 6 -25 15 -25 9 0 15 -9 15 -25
0 -16 6 -25 15 -25 8 0 15 -9 15 -20 0 -11 -7 -23 -15 -26 -8 -4 -15 -15 -15
-25 0 -10 -7 -19 -15 -19 -9 0 -15 -9 -15 -25 0 -16 -6 -25 -15 -25 -9 0 -15
-9 -15 -25 0 -20 -5 -25 -25 -25 -20 0 -25 5 -25 25 0 16 6 25 15 25 9 0 15 9
15 25 0 16 6 25 15 25 8 0 15 9 15 19 0 10 7 21 15 25 8 3 15 15 15 26 0 11
-7 20 -15 20 -9 0 -15 9 -15 25 0 16 -6 25 -15 25 -9 0 -15 9 -15 25 0 16 -6
25 -15 25 -9 0 -15 10 -15 26 0 21 4 25 23 22 14 -2 23 -11 25 -25z m-428 -73
c0 -49 -1 -50 -30 -50 -29 0 -30 1 -30 50 0 49 1 50 30 50 29 0 30 -1 30 -50z
m-2 -192 c3 -47 3 -48 -27 -48 -30 0 -31 1 -31 51 0 49 1 50 28 47 25 -3 27
-7 30 -50z"/>
</g>
</svg>
